<?xml version="1.0" encoding="UTF-8"?>
<svg id="Layer_1" xmlns="http://www.w3.org/2000/svg" version="1.1" viewBox="0 0 172.51 15.15">
  <!-- Generator: Adobe Illustrator 29.6.1, SVG Export Plug-In . SVG Version: 2.1.1 Build 9)  -->
  <defs>
    <style>
      .st0 {
        fill: #d52d1f;
      }
    </style>
  </defs>
  <path class="st0" d="M101.47,8.08l-1.7-1.6c-.07-.06-.17-.1-.27-.1h-4.56c-.17,0-.31.14-.31.31v2.29c0,.19.15.34.33.34h3.48s0,0,0,0c-.13,1.38-1.35,2.58-3.46,2.58-2.56,0-4.38-1.81-4.38-4.3s1.82-4.31,4.21-4.31c1.23,0,2.24.46,3.03,1.15.17.13.34.13.5-.06l1.55-1.66c.19-.21.19-.4.02-.58-1.26-1.3-3-2.1-5.13-2.1-3.41,0-6.31,2.2-7.23,5.39V.52c0-.17-.14-.31-.31-.31h-2.69c-.17,0-.32.14-.32.31v8.97L79.39.42c-.08-.15-.21-.21-.37-.21h-3.13c-.17,0-.31.14-.31.31v5.34c-.75-3.39-3.82-5.86-7.37-5.86-3.17,0-5.93,2.06-7.04,4.87h0s.76-4.3.76-4.3c.03-.19-.11-.36-.3-.36h-2.77c-.15,0-.28.11-.3.26l-2.29,12.93s.65-10.43.65-11.03c-.01-1.17-.72-1.75-1.32-2.05-.61-.31-2.37-.65-3.19,1.03l-4.51,9.32-1.96-8.48c-.21-.91-.7-1.97-2.34-2.06-.98.01-2.12.51-2.39,1.74l-2.53,11.42c-.47-2.43-2.18-11.24-2.19-11.28-.27-1.11-1.05-1.77-2.17-1.9-2.14-.25-2.88,1.34-2.88,1.34l-6.04,11.62V.52c0-.17-.14-.31-.31-.31h-2.9c-.17,0-.31.14-.31.31v5.67h-5.78V.52c0-.17-.13-.31-.31-.31h-2.9c-.17,0-.31.14-.31.31v1.55C11.28.82,9.58.04,7.55.05,3.4.05,0,3.3,0,7.61,0,11.92,3.41,15.15,7.56,15.15c2.03,0,3.72-.78,5-2.03v1.44c0,.17.14.31.31.31h2.9c.17,0,.31-.14.31-.31v-5.21h5.78v5.31c0,.12.09.21.21.21l5.99-.02c.08,0,.16-.04.19-.12l1.44-2.8,5.31.03.48,2.65c.02.15.15.26.3.26h5.65c.14,0,.27-.1.3-.24l2.04-9.14s1.75,7.87,1.77,7.91c.28.85.74,1.49,1.78,1.56.92.07,1.87-.19,2.35-1.27,0,0,3.77-8.17,3.77-8.17l-.62,9.01c-.01.18.13.33.31.33h5.98c.15,0,.28-.11.31-.26l1.24-6.99c.09,4.14,3.45,7.47,7.53,7.47,3.55,0,6.62-2.49,7.37-5.85v5.32c0,.17.14.31.31.31h2.69c.17,0,.31-.13.31-.31V5.59l4.86,9.07c.08.15.2.21.37.21h3.12c.17,0,.32-.14.32-.31v-4.79c.92,3.18,3.83,5.37,7.31,5.37,4.12,0,6.65-3.02,6.72-6.76,0-.11-.04-.22-.13-.3ZM12.56,12.63s-1.8-1.9-1.81-1.91c-.12-.09-.26-.08-.39,0-.81.71-1.82,1.17-3.04,1.17-2.41,0-4.23-1.82-4.23-4.29,0-2.49,1.82-4.32,4.23-4.32,1.21,0,2.22.46,3.04,1.17.14.1.31.1.44-.04l1.77-1.88v10.09ZM34.34,9.01h-2.98c-.07,0-.11-.07-.08-.13l2.32-4.44.83,4.46c.01.05-.03.1-.09.1ZM68.21,11.85c-2.37,0-4.19-1.86-4.19-4.29s1.82-4.32,4.19-4.32,4.19,1.84,4.19,4.32-1.8,4.29-4.19,4.29Z"/>
  <g>
    <path class="st0" d="M105.87,5.64s-.06-.03-.06-.06l.04-2.64-.02-1.83h-1.51s-.06-.03-.06-.06V.29s.03-.06.06-.06h4.2s.06.03.06.06v.75s-.03.06-.06.06h-1.51l-.02,1.83.04,2.64s-.03.06-.06.06h-1.1Z"/>
    <path class="st0" d="M111.74,4.29s.06.03.05.06c-.09.73-.79,1.38-1.91,1.38-1.33,0-2.05-.87-2.05-2.08,0-1.27.76-2.1,2.02-2.1s2.03.87,2.05,2.26c0,.03-.03.06-.06.06h-2.85c.05.75.34,1.08.9,1.08.39,0,.67-.18.77-.61,0-.04.05-.06.08-.06h.99ZM109.87,2.32c-.46,0-.74.28-.83.83h1.63c-.05-.42-.29-.83-.8-.83Z"/>
    <path class="st0" d="M114.25,5.74c-1.27,0-2.03-.81-2.03-2.08s.76-2.1,2.05-2.1c1.03,0,1.69.58,1.78,1.45,0,.03-.02.06-.05.06h-.95s-.06-.02-.07-.06c-.08-.46-.37-.67-.7-.67-.59,0-.87.43-.87,1.31s.29,1.31.87,1.31c.39,0,.69-.27.73-.8,0-.04.04-.06.07-.06h.97s.06.03.05.06c-.08.91-.81,1.57-1.85,1.57Z"/>
    <path class="st0" d="M118.48,2.42c-.37,0-.77.29-.9.85l.02,2.31s-.03.06-.06.06h-1.02s-.06-.03-.06-.06l.02-2.65-.02-2.63s.03-.06.06-.06h1.02s.06.03.06.06l-.02,1.81c.28-.36.68-.53,1.21-.53.9,0,1.44.53,1.42,1.7v.85l.02,1.46s-.03.06-.06.06h-1.05s-.06-.03-.06-.06l.02-1.44v-1c0-.48-.27-.71-.59-.71Z"/>
    <path class="st0" d="M120.71,5.64s-.06-.03-.06-.06l.02-1.85V1.72s.03-.06.06-.06h1s.06.03.06.06l-.02.44c.27-.35.73-.59,1.28-.59.84,0,1.39.57,1.39,1.55v.83l.02,1.63s-.03.06-.06.06h-1.05s-.06-.03-.06-.06l.02-1.63v-.82c0-.43-.25-.71-.6-.71-.42,0-.86.39-.86,1.24v.29l.02,1.63s-.03.06-.06.06h-1.07Z"/>
    <path class="st0" d="M126.83,5.74c-1.3,0-2.05-.81-2.05-2.08s.75-2.1,2.05-2.1,2.03.81,2.03,2.08-.73,2.1-2.03,2.1ZM126.83,4.97c.57,0,.84-.39.84-1.31s-.28-1.33-.85-1.33c-.59,0-.86.44-.86,1.34s.29,1.3.86,1.3Z"/>
    <path class="st0" d="M129.34,5.64s-.06-.03-.06-.06l.02-2.64-.02-2.64s.03-.06.06-.06h1.02s.06.03.06.06l-.02,2.64.02,2.64s-.03.06-.06.06h-1.02Z"/>
    <path class="st0" d="M132.88,5.74c-1.3,0-2.05-.81-2.05-2.08s.75-2.1,2.05-2.1,2.03.81,2.03,2.08-.73,2.1-2.03,2.1ZM132.88,4.97c.57,0,.84-.39.84-1.31s-.28-1.33-.85-1.33c-.59,0-.86.44-.86,1.34s.29,1.3.87,1.3Z"/>
    <path class="st0" d="M137.27,7.18c-1.05.02-1.84-.41-1.9-1.29,0-.03.03-.06.06-.06h1.02s.06.02.07.06c.05.33.32.53.79.53.5,0,.85-.28.85-.9v-.46c-.26.35-.65.56-1.14.56-1.18,0-1.8-.87-1.8-1.99s.66-2.02,1.75-2.02c.49,0,.88.17,1.15.49l-.02-.37s.03-.06.06-.06h1.04s.06.03.06.06l-.02,1.99v1.82c0,1-.65,1.65-1.96,1.65ZM137.26,4.86c.56,0,.87-.4.87-1.2,0-.83-.29-1.28-.85-1.29-.59-.02-.89.42-.89,1.21,0,.86.31,1.29.87,1.28Z"/>
    <path class="st0" d="M141.77,6.89s-.05.06-.08.06h-.98s-.05-.03-.04-.06l.42-1.21-1.6-3.96s0-.05.04-.05h1.18s.07.02.08.06l.87,2.49.72-2.49s.04-.06.08-.06h1.05s.05.03.04.06l-1.77,5.17Z"/>
    <path class="st0" d="M143.39,5.64s-.06-.03-.06-.06v-.98s.03-.06.06-.06h1.08s.06.03.06.06v.98s-.03.06-.06.06h-1.08Z"/>
    <path class="st0" d="M105.46,12.43v2.42s-.03.06-.06.06h-.93s-.06-.03-.06-.06l.02-2.64-.02-2.64s.03-.06.06-.06h1.44s.07.02.08.06l1.44,3.89,1.36-3.89s.05-.06.08-.06h1.34s.06.03.06.06l-.02,2.64.02,2.64s-.03.06-.06.06h-1.05s-.06-.03-.06-.06v-2.42l.04-1.08v-.24l-1.31,3.74s-.05.06-.08.06h-.8s-.07-.02-.08-.06l-1.44-3.89v.41s.05,1.07.05,1.07Z"/>
    <path class="st0" d="M113.63,14.91s-.06-.03-.06-.06l.02-.4c-.28.34-.67.54-1.17.54-1.13,0-1.72-.9-1.72-2.05s.66-2.08,1.75-2.08c.49,0,.88.18,1.15.5l-.02-.36s.03-.06.06-.06h1.04s.06.03.06.06l-.02,1.93.02,1.92s-.03.06-.06.06h-1.04ZM112.74,14.21c.56,0,.87-.42.87-1.27,0-.85-.29-1.31-.85-1.32-.59-.02-.89.42-.89,1.24,0,.9.31,1.35.87,1.34Z"/>
    <path class="st0" d="M117.69,14.77s-.02.07-.06.08c-.22.07-.48.13-.73.13-.67,0-1.31-.34-1.31-1.24v-1.99s-.45,0-.45,0c-.03,0-.06-.03-.06-.06v-.7s.03-.06.06-.06h.46v-.93s.02-.06.05-.06h1.04s.06.03.06.06v.93s.89,0,.89,0c.03,0,.06.03.06.06v.7s-.03.06-.06.06h-.9v1.96c0,.34.18.45.43.45.19,0,.34-.03.46-.07.03,0,.06.02.06.05v.63Z"/>
    <path class="st0" d="M121.76,13.56s.06.03.05.06c-.09.73-.79,1.38-1.91,1.38-1.33,0-2.05-.87-2.05-2.08,0-1.27.76-2.1,2.02-2.1s2.03.87,2.05,2.26c0,.03-.03.06-.06.06h-2.85c.05.75.34,1.08.9,1.08.39,0,.67-.18.77-.61,0-.04.05-.06.08-.06h.99ZM119.9,11.59c-.46,0-.74.28-.83.83h1.63c-.05-.42-.29-.83-.8-.83Z"/>
    <path class="st0" d="M122.38,14.91s-.06-.03-.06-.06l.02-1.93-.02-1.92s.03-.06.06-.06h1.03s.06.03.06.06l-.03.61c.31-.47.84-.7,1.42-.7.06,0,.13,0,.19.02.03,0,.06.05.06.08v.73s-.03.05-.06.05c-.05,0-.11,0-.15,0-.82,0-1.42.46-1.42,1.37v1.71s-.03.06-.06.06h-1.03Z"/>
    <path class="st0" d="M125.52,10.54s-.06-.03-.06-.06v-.92s.03-.06.06-.06h1.05s.06.03.06.06v.92s-.03.06-.06.06h-1.05ZM125.52,14.91s-.06-.03-.06-.06l.02-1.92-.02-1.93s.03-.06.06-.06h1.05s.06.03.06.06l-.02,1.93.02,1.92s-.03.06-.06.06h-1.05Z"/>
    <path class="st0" d="M129.97,14.91s-.06-.03-.06-.06l.02-.4c-.28.34-.67.54-1.17.54-1.13,0-1.72-.9-1.72-2.05s.66-2.08,1.75-2.08c.49,0,.88.18,1.15.5l-.02-.36s.03-.06.06-.06h1.04s.06.03.06.06l-.02,1.93.02,1.92s-.03.06-.06.06h-1.04ZM129.08,14.21c.56,0,.87-.42.87-1.27,0-.85-.29-1.31-.85-1.32-.59-.02-.89.42-.89,1.24,0,.9.31,1.35.86,1.34Z"/>
    <path class="st0" d="M131.63,14.91s-.06-.03-.06-.06l.02-2.64-.02-2.64s.03-.06.06-.06h1.02s.06.03.06.06l-.02,2.64.02,2.64s-.03.06-.06.06h-1.02Z"/>
    <path class="st0" d="M135.03,15c-1.18,0-1.88-.47-1.92-1.37,0-.03.03-.06.06-.06h1s.06.02.06.06c.02.45.32.65.87.65.46,0,.7-.18.7-.49,0-.76-2.6-.02-2.6-1.69,0-.83.66-1.27,1.74-1.27s1.75.42,1.82,1.26c0,.03-.02.06-.05.06h-.96s-.06-.02-.07-.06c-.06-.34-.28-.56-.75-.56-.38,0-.62.14-.62.48,0,.76,2.6-.02,2.6,1.68,0,.83-.79,1.31-1.89,1.31Z"/>
    <path class="st0" d="M137.29,14.91s-.06-.03-.06-.06v-.98s.03-.06.06-.06h1.08s.06.03.06.06v.98s-.03.06-.06.06h-1.08Z"/>
    <path class="st0" d="M142.72,15.03c-1.42,0-2.4-.6-2.45-1.88,0-.03.03-.06.06-.06h1.1s.06.02.07.06c.07.6.35,1,1.24,1,.7,0,1.09-.21,1.09-.72,0-1.22-3.45-.25-3.45-2.4,0-1.01.79-1.65,2.17-1.65,1.27,0,2.14.49,2.3,1.65,0,.03-.02.06-.05.06h-1.11s-.06-.02-.07-.06c-.05-.49-.45-.76-1.11-.76-.56,0-.96.19-.96.64,0,1.15,3.47.22,3.47,2.36,0,1.14-.88,1.76-2.29,1.76Z"/>
    <path class="st0" d="M149.2,13.56s.06.03.05.06c-.09.73-.79,1.38-1.91,1.38-1.33,0-2.05-.87-2.05-2.08,0-1.27.76-2.1,2.02-2.1s2.03.87,2.05,2.26c0,.03-.03.06-.06.06h-2.85c.05.75.34,1.08.9,1.08.39,0,.67-.18.77-.61,0-.04.05-.06.08-.06h.99ZM147.33,11.59c-.46,0-.74.28-.83.83h1.63c-.05-.42-.29-.83-.8-.83Z"/>
    <path class="st0" d="M149.81,14.91s-.06-.03-.06-.06l.02-1.93-.02-1.92s.03-.06.06-.06h1.03s.06.03.06.06l-.03.61c.31-.47.84-.7,1.42-.7.06,0,.13,0,.19.02.03,0,.06.05.06.08v.73s-.03.05-.06.05c-.05,0-.11,0-.15,0-.82,0-1.42.46-1.42,1.37v1.71s-.03.06-.06.06h-1.03Z"/>
    <path class="st0" d="M155.53,14.84s-.05.06-.08.06h-1.23s-.07-.02-.08-.06l-1.35-3.85s0-.06.04-.06h1.13s.07.02.08.06l.85,2.91.95-2.91s.04-.06.08-.06h.97s.05.03.04.06l-1.38,3.85Z"/>
    <path class="st0" d="M157.22,10.54s-.06-.03-.06-.06v-.92s.03-.06.06-.06h1.05s.06.03.06.06v.92s-.03.06-.06.06h-1.05ZM157.22,14.91s-.06-.03-.06-.06l.02-1.92-.02-1.93s.03-.06.06-.06h1.05s.06.03.06.06l-.02,1.93.02,1.92s-.03.06-.06.06h-1.05Z"/>
    <path class="st0" d="M160.76,15.01c-1.27,0-2.03-.81-2.03-2.08s.76-2.1,2.05-2.1c1.03,0,1.69.58,1.78,1.45,0,.03-.02.06-.05.06h-.95s-.06-.02-.07-.06c-.08-.46-.37-.67-.7-.67-.59,0-.87.43-.87,1.31s.29,1.31.87,1.31c.39,0,.69-.27.73-.8,0-.04.04-.06.07-.06h.97s.06.03.05.06c-.08.91-.81,1.57-1.85,1.57Z"/>
    <path class="st0" d="M166.8,13.56s.06.03.05.06c-.09.73-.79,1.38-1.91,1.38-1.33,0-2.05-.87-2.05-2.08,0-1.27.76-2.1,2.02-2.1s2.03.87,2.05,2.26c0,.03-.03.06-.06.06h-2.85c.05.75.34,1.08.9,1.08.39,0,.67-.18.77-.61,0-.04.05-.06.08-.06h.99ZM164.93,11.59c-.46,0-.74.28-.83.83h1.63c-.05-.42-.29-.83-.8-.83Z"/>
    <path class="st0" d="M169.1,15c-1.18,0-1.88-.47-1.92-1.37,0-.03.03-.06.06-.06h1s.06.02.06.06c.02.45.32.65.87.65.46,0,.7-.18.7-.49,0-.76-2.6-.02-2.6-1.69,0-.83.66-1.27,1.74-1.27s1.75.42,1.82,1.26c0,.03-.02.06-.05.06h-.96s-.06-.02-.07-.06c-.06-.34-.28-.56-.75-.56-.38,0-.62.14-.62.48,0,.76,2.6-.02,2.6,1.68,0,.83-.79,1.31-1.89,1.31Z"/>
    <path class="st0" d="M171.37,14.91s-.06-.03-.06-.06v-.98s.03-.06.06-.06h1.08s.06.03.06.06v.98s-.03.06-.06.06h-1.08Z"/>
  </g>
</svg>